<?xml version="1.0" encoding="UTF-8" standalone="no"?>
<svg
   height="24px"
   viewBox="0 -960 960 960"
   width="24px"
   fill="#e3e3e3"
   version="1.1"
   id="svg1"
   sodipodi:docname="material-astro-logo.svg"
   inkscape:version="1.4 (86a8ad7, 2024-10-11)"
   xmlns:inkscape="http://www.inkscape.org/namespaces/inkscape"
   xmlns:sodipodi="http://sodipodi.sourceforge.net/DTD/sodipodi-0.dtd"
   xmlns:xlink="http://www.w3.org/1999/xlink"
   xmlns="http://www.w3.org/2000/svg"
   xmlns:svg="http://www.w3.org/2000/svg">
  <defs
     id="defs1">
    <linearGradient
       id="linearGradient3"
       inkscape:collect="always">
      <stop
         style="stop-color:#410c0c;stop-opacity:1;"
         offset="0"
         id="stop3" />
      <stop
         style="stop-color:#47004d;stop-opacity:1;"
         offset="1"
         id="stop4" />
    </linearGradient>
    <linearGradient
       id="linearGradient1"
       inkscape:collect="always">
      <stop
         style="stop-color:#d83333;stop-opacity:1;"
         offset="0"
         id="stop1" />
      <stop
         style="stop-color:#f041ff;stop-opacity:1;"
         offset="1"
         id="stop2" />
    </linearGradient>
    <inkscape:path-effect
       effect="fillet_chamfer"
       id="path-effect1"
       is_visible="true"
       lpeversion="1"
       nodesatellites_param="F,0,0,1,0,0,0,1 @ F,0,0,1,0,0,0,1 @ F,0,0,1,0,0,0,1 @ F,0,0,1,0,0,0,1"
       radius="0"
       unit="px"
       method="auto"
       mode="F"
       chamfer_steps="1"
       flexible="false"
       use_knot_distance="true"
       apply_no_radius="true"
       apply_with_radius="true"
       only_selected="false"
       hide_knots="false" />
    <linearGradient
       inkscape:collect="always"
       xlink:href="#linearGradient1"
       id="linearGradient2"
       x1="87"
       y1="-469.38843"
       x2="877.81667"
       y2="-469.38843"
       gradientUnits="userSpaceOnUse" />
    <linearGradient
       inkscape:collect="always"
       xlink:href="#linearGradient3"
       id="linearGradient4"
       x1="0"
       y1="-480"
       x2="960"
       y2="-480"
       gradientUnits="userSpaceOnUse" />
  </defs>
  <sodipodi:namedview
     id="namedview1"
     pagecolor="#505050"
     bordercolor="#eeeeee"
     borderopacity="1"
     inkscape:showpageshadow="0"
     inkscape:pageopacity="0"
     inkscape:pagecheckerboard="0"
     inkscape:deskcolor="#505050"
     inkscape:zoom="27.488776"
     inkscape:cx="9.1673779"
     inkscape:cy="14.496826"
     inkscape:window-width="1920"
     inkscape:window-height="1177"
     inkscape:window-x="-8"
     inkscape:window-y="-8"
     inkscape:window-maximized="1"
     inkscape:current-layer="layer2"
     inkscape:export-bgcolor="#ffffff00" />
  <g
     inkscape:groupmode="layer"
     id="layer2"
     inkscape:label="box">
    <rect
       style="mix-blend-mode:normal;fill:url(#linearGradient4);stroke-width:452.285"
       id="rect1"
       x="0"
       y="-960"
       sodipodi:type="rect"
       rx="100"
       ry="100"
       width="960"
       height="960" />
  </g>
  <g
     inkscape:groupmode="layer"
     id="layer1"
     inkscape:label="rocket">
    <path
       d="m 98,-537 168,-168 q 14,-14 33,-20 19,-6 39,-2 l 52,11 q -54,64 -85,116 -31,52 -60,126 z m 205,91 q 23,-72 62.5,-136 39.5,-64 95.5,-120 88,-88 201,-131.5 113,-43.5 211,-26.5 17,98 -26,211 -43,113 -131,201 -55,55 -120,95.5 -65,40.5 -137,63.5 z m 276,-120 q 23,23 56.5,23 33.5,0 56.5,-23 23,-23 23,-56.5 0,-33.5 -23,-56.5 -23,-23 -56.5,-23 -33.5,0 -56.5,23 -23,23 -23,56.5 0,33.5 23,56.5 z m -28,481 -64,-147 q 74,-29 126.5,-60 52.5,-31 116.5,-85 l 10,52 q 4,20 -2,39.5 -6,19.5 -20,33.5 z M 162,-318 q 35,-35 85,-35.5 50,-0.5 85,34.5 35,35 35,85 0,50 -35,85 -25,25 -83.5,43 -58.5,18 -161.5,32 14,-103 32,-161 18,-58 43,-83 z"
       id="path1"
       style="mix-blend-mode:normal;fill:url(#linearGradient2)" />
  </g>
</svg>
